<svg xmlns="http://www.w3.org/2000/svg" width="16" height="16" viewBox="0 0 16 16">
    <g fill="none" fill-rule="evenodd" opacity=".3">
        <g>
            <g>
                <path d="M0 0L16 0 16 16 0 16z" transform="translate(-528.000000, -403.000000) translate(528.000000, 403.000000)"/>
                <path fill="#FFF" fill-rule="nonzero" d="M8 1.333C4.32 1.333 1.333 4.32 1.333 8c0 3.68 2.987 6.667 6.667 6.667 3.68 0 6.667-2.987 6.667-6.667 0-3.68-2.987-6.667-6.667-6.667zm0 10c-.367 0-.667-.3-.667-.666V8c0-.367.3-.667.667-.667.367 0 .667.3.667.667v2.667c0 .366-.3.666-.667.666zM8.667 6H7.333V4.667h1.334V6z" transform="translate(-528.000000, -403.000000) translate(528.000000, 403.000000)"/>
            </g>
        </g>
    </g>
</svg>
